PathFileType	4	(X/Y/Z)	C:/Users/beibeiliu/ov580/test_trc/capture2\sequence.6_training_dense_right.trc
DataRate	CameraRate	NumFrames	NumMarkers	Units	OrigDataRate	OrigDataStartFrame	OrigNumFrames
120	120	18	19	mm	120	89	353
Frame#	Time	ThumbCMC			ThumbMCP			ThumbIP			ThumbTip			IndexMCP			IndexPIP			IndexTip			MiddleMCP			MiddlePIP			MiddleTip			RingMCP			RingPIP			RingTip			PinkyMCP			PinkyPIP			PinkyTip			BackHand1			BackHand2			BackHand3	
		X0	Y0	Z0	X1	Y1	Z1	X2	Y2	Z2	X3	Y3	Z3	X4	Y4	Z4	X5	Y5	Z5	X6	Y6	Z6	X7	Y7	Z7	X8	Y8	Z8	X9	Y9	Z9	X10	Y10	Z10	X11	Y11	Z11	X12	Y12	Z12	X13	Y13	Z13	X14	Y14	Z14	X15	Y15	Z15	X16	Y16	Z16	X17	Y17	Z17	X18	Y18	Z18	
88	0.733333	128.573	90.0165	-10.3484	103.041	96.1598	-38.1019	96.322	95.6611	-64.1321	100.06	78.4898	-86.5279	159.974	96.3255	-79.2348	146.766	101.109	-109.01	114.825	103.203	-113.186	138.004	77.8482	-90.5241	108.025	79.8302	-88.943	108.814	77.0766	-50.0623	126.591	64.607	-84.0629	101.206	65.504	-68.038	115.399	62.3187	-36.2572	127.239	44.7725	-76.3965	103.186	50.54	-57.562	123.564	54.4102	-30.4401	164.308	49.4477	-43.9721	164.369	42.5032	-13.1258	165.752	74.502	-19.7638	
89	0.741667	129.678	90.1059	-16.7057	104.524	92.2192	-39.5105	96.0122	93.7894	-68.1814	99.98	76.7842	-86.3396	159.288	96.6813	-80.5792	147.096	102.167	-107.174	111.334	93.8979	-108.044	140.301	76.1706	-89.07	108.072	78.4137	-87.7082	112.19	75.885	-50.7504	128.782	61.4627	-85.2206	103.537	59.3105	-71.6633	114.435	63.4663	-39.8435	127.757	40.1071	-77.5305	105.666	48.1538	-61.9728	118.976	51.3486	-32.0434	166.977	45.2371	-41.2733	165.692	39.0797	-13.2064	167.371	76.8132	-22.2568	
90	0.75	128.467	90.0149	-15.0537	104.732	92.2719	-43.4402	97.4975	91.5543	-72.1427	100.839	73.8292	-92.2742	160.448	98.6086	-82.9282	146.493	96.2049	-108.664	114.094	93.2981	-108.785	142.841	74.1622	-89.2591	110.116	75.5568	-89.4493	110.299	71.2426	-53.8728	132.91	55.298	-85.5122	104.649	58.1869	-69.4503	118.552	59.1198	-39.3121	131.997	38.883	-76.9195	106.828	42.3587	-60.6635	120.466	49.291	-34.9697	168.674	48.553	-43.9415	166.603	42.8025	-7.95146	167.914	77.683	-21.9328	
91	0.758333	130.644	86.0415	-17.4507	105.634	90.0734	-45.3552	97.7467	86.1465	-67.4944	101.134	71.9767	-92.0272	160.91	92.9092	-83.7929	145.521	96.1199	-112.238	115.355	89.3726	-113.418	141.696	72.5473	-91.0405	108.665	70.522	-87.463	113.492	68.5906	-52.5166	132.946	54.779	-86.848	104.994	52.5071	-69.6338	118.134	57.9788	-41.9536	133.463	33.3801	-78.2248	109.336	41.4657	-60.1992	122.853	47.5552	-35.1843	171.373	46.5632	-44.8588	169.57	40.2061	-10.4365	166.967	75.5506	-20.4044	
92	0.766667	130.507	86.6385	-20.5312	108.181	83.4242	-44.5513	97.0476	83.8672	-70.012	104.504	65.5827	-89.501	160.608	93.9239	-84.9224	149.039	94.3015	-115.365	120.548	84.783	-123.022	142.546	70.4321	-92.5019	110.233	68.7542	-88.9457	114.242	62.312	-54.7393	134.361	52.8294	-86.5831	107.552	49.2508	-74.6217	123.66	53.5925	-39.8054	132.368	33.0886	-79.6004	111.335	38.5796	-63.8229	126.854	47.6875	-34.4514	173.339	45.0992	-44.2638	172.242	38.8676	-10.183	166.701	74.3203	-22.668	
93	0.775	130.9	85.046	-21.0889	104.88	82.498	-44.7674	98.3243	79.321	-74.7167	101.837	63.1397	-94.6768	160.412	92.2776	-85.5753	152.977	95.0862	-114.852	127.268	82.1599	-132.282	144.04	70.1377	-92.116	110.215	60.8347	-89.1371	116.522	63.7396	-53.9561	134.592	49.1147	-87.2637	109.794	46.8219	-74.0857	120.083	54.4885	-43.9607	135.883	31.577	-77.9161	112.601	34.6432	-61.029	129.623	45.3827	-34.4277	175.176	43.6776	-46.6535	172.133	43.844	-9.23677	169.938	76.2432	-26.967	
94	0.783333	130.335	83.6831	-19.862	104.932	81.0269	-44.4262	96.6511	77.4915	-75.6477	105.665	56.8447	-94.7141	160.116	89.5207	-89.4956	153.251	91.2635	-119.197	135.284	87.0863	-139.138	143.277	67.0546	-95.1069	111.234	59.7267	-90.2265	117.968	62.1729	-54.2797	135.958	46.082	-88.9368	111.09	42.9955	-73.0292	123.196	50.0291	-42.1072	140.75	32.6526	-76.7634	115.47	36.0163	-61.8452	132.977	46.9242	-33.6652	175.248	45.1187	-46.6254	174.799	43.9125	-16.0538	169.922	79.0311	-24.4752	
95	0.791667	129.319	86.4828	-24.3959	104.461	80.9721	-48.1225	97.3837	73.8977	-79.4885	108	54.8089	-92.9374	159.339	92.272	-89.4819	154.423	90.8102	-120.085	140.789	86.3199	-142.378	145.853	62.7203	-95.0224	112.517	57.9143	-93.2566	117.742	58.5309	-56.5756	139.458	46.7306	-88.5679	112.715	43.3712	-74.2066	125.6	51.1203	-43.3924	140.999	31.7231	-78.6237	117.591	34.0348	-59.594	133.457	44.4311	-36.0971	178.377	49.3079	-46.9714	177.854	46.6762	-15.8911	170.88	77.1306	-31.1699	
96	0.8	128.737	87.8567	-27.027	108.656	75.8314	-52.6487	99.4082	70.3633	-76.8393	109.015	51.3863	-95.5659	158.196	94.2048	-92.7492	153.892	94.9288	-118.803	146.854	83.5615	-144.028	141.607	65.6235	-99.6269	114.021	52.8182	-93.2802	116.809	58.1442	-58.615	141.678	43.4504	-88.491	114.385	41.7695	-70.3854	128.845	55.2116	-44.2983	144.822	26.7039	-79.3767	120.91	35.5022	-61.0614	133.109	43.6838	-35.0054	178.74	52.5621	-46.6155	178.797	52.7654	-17.4995	170.251	81.3129	-28.5612	
97	0.808333	125.529	85.5953	-28.9331	108.01	73.0563	-52.8934	96.2915	67.6466	-78.8024	110.944	47.3393	-96.3937	157.474	90.4532	-94.3978	152.664	90.3666	-121.488	147.761	82.8542	-146.827	141.838	63.9628	-101.39	114.449	52.3694	-95.2819	120.008	56.1536	-57.8829	139.714	41.6115	-90.6625	117.572	34.982	-73.4612	131.099	47.6845	-44.3584	147.338	29.2541	-79.1303	123.765	28.2179	-58.4217	138.892	42.9135	-33.6694	180.152	52.3337	-50.2586	180.9	54.7175	-18.9616	167.617	83.7778	-32.6989	
98	0.816667	123.413	81.2746	-27.396	103.693	68.0429	-52.1835	100.086	59.2658	-79.0739	111.678	41.5453	-100.297	155.473	86.8452	-96.1141	153.137	84.8462	-122.835	148.437	82.5313	-150.138	144.247	57.5141	-102.126	115.197	43.7936	-94.1494	118.451	51.418	-61.4572	145.299	38.142	-89.9879	120.089	30.897	-75.0863	130.622	44.4579	-46.7918	152.35	21.7587	-79.4732	125.859	28.1362	-61.1814	139.722	41.5829	-37.8284	179.36	55.0879	-48.9143	180.661	53.7318	-16.481	164.195	83.9822	-36.1287	
99	0.825	122.917	78.9005	-31.506	105.573	62.2837	-55.1442	101.031	53.0643	-84.1834	113.912	36.3098	-103.091	151.359	87.4302	-98.1126	149.998	86.0657	-123.018	149.514	78.6682	-151.975	143.401	57.5088	-103.578	118.909	39.8274	-97.869	120.161	48.4276	-62.3024	145.342	35.8572	-91.5901	123.014	25.9034	-73.1879	134.694	40.7028	-46.5152	152.976	20.1072	-81.3955	130.644	19.2455	-60.2416	140.413	40.2543	-37.6006	180.501	53.8267	-52.8896	182.72	54.0537	-18.7634	162.416	82.1245	-36.3228	
100	0.833333	122.979	73.827	-32.4062	103.253	58.5793	-57.3848	99.1415	47.5985	-82.4878	117.987	32.6373	-100.421	151.79	82.9379	-100.051	149.369	83.6249	-127.656	150.556	76.6948	-149.733	145.664	52.7941	-102.895	121.097	33.4422	-97.3296	122.267	42.2509	-63.6997	149.985	33.8867	-92.6032	124.382	23.7686	-76.0488	136.984	41.7548	-47.4516	158.384	21.6619	-81.0373	133.349	18.2584	-65.5378	143.695	35.5707	-38.4698	179.415	56.9412	-52.0987	182.597	55.0149	-20.8204	162.911	82.1305	-37.7949	
101	0.841667	120.422	71.7476	-36.9534	107.342	52.7571	-60.2077	100.882	43.2091	-88.2444	113.807	29.5698	-103.597	148.245	84.2199	-103.224	146.874	81.7759	-127.368	148.077	72.528	-154.521	145.78	49.9471	-105.69	122.646	32.2691	-101.037	123.57	41.3004	-63.0504	148.932	34.1903	-94.4565	126.987	20.87	-77.7548	135.078	38.5271	-49.7691	160.667	22.4389	-80.6097	136.054	16.3424	-64.1525	143.573	34.9301	-39.0075	180.785	54.9422	-50.0349	179.019	56.7321	-19.7847	162.164	79.4123	-39.0319	
102	0.85	122.552	67.782	-35.7005	104.81	50.709	-59.6288	100.493	40.0426	-88.4598	115.218	26.8601	-101.636	149.289	81.4781	-100.517	148.212	78.6221	-127.675	144.247	67.2805	-153.992	148.475	50.4328	-104.982	124.017	28.4047	-100.811	127.173	38.2579	-63.0232	153.214	31.9335	-93.7047	128.437	18.8351	-80.7317	134.206	35.0403	-50.9788	158.93	20.0128	-82.7563	137.685	13.5313	-65.1869	144.961	31.4855	-40.0204	180.775	56.7388	-55.3536	181.199	56.4536	-19.0227	161.611	78.3391	-38.5098	
103	0.858333	118.474	67.762	-34.3447	105.532	48.8829	-59.667	103.467	39.0025	-86.0493	119.722	25.5933	-106.653	151.34	80.0254	-102.671	145.428	77.3976	-131.923	134.504	60.7458	-153.375	150.096	48.7358	-104.776	124.05	30.1626	-102.374	123.179	37.73	-67.9376	151.584	31.9978	-96.3209	130.902	16.8092	-82.7533	135.131	31.8292	-52.4198	160.563	17.7944	-83.7988	138.062	12.4702	-68.1345	143.003	31.1536	-41.0295	182.153	55.615	-53.7719	179.503	58.1198	-20.0149	157.089	81.502	-37.9114	
104	0.866667	120.63	63.8015	-34.1115	102.168	48.3281	-62.7958	104.708	37.9545	-88.3479	119.306	26.253	-104.186	146.554	83.4733	-100.565	142.614	75.7747	-132.816	130.638	49.8126	-144.875	146.126	52.6473	-108.376	127.158	27.8485	-104.792	126.119	34.0981	-68.6252	154.089	31.5372	-97.0994	129.448	17.9693	-83.3814	137.755	30.9323	-52.5721	164.443	20.6817	-84.4814	140.294	11.1063	-67.9287	144.504	35.083	-42.1044	180.832	58.3521	-50.6621	178.324	56.9703	-18.8507	156.993	76.9619	-37.0809	
105	0.875	117.676	63.8592	-36.1018	101.451	45.8534	-62.8967	102.104	35.5722	-91.2669	122.296	24.7184	-106.566	145.32	81.6734	-103.232	140.189	71.3252	-130.779	125.327	44.7741	-136.425	147.031	51.2326	-107.322	128.921	27.7134	-107.011	125.58	34.4664	-69.3699	151.176	32.5453	-98.2504	130.155	17.953	-83.1787	133.629	30.521	-54.6622	164.277	21.7873	-84.6204	139.704	13.9327	-67.0385	144.706	32.7223	-43.3582	178.45	59.6095	-53.7589	175.269	60.9625	-20.5836	151.479	79.4363	-40.2384	
